<svg xmlns="http://www.w3.org/2000/svg" width="201.447" height="41.058" viewBox="0 0 201.447 41.058">
  <g id="logo" transform="translate(-114 -231.943)">
    <g id="logo-2" data-name="logo" transform="translate(114 232)">
      <path id="typography" d="M12,22.258V4h2.119V22.258Zm16.058-.022V20.343a7.23,7.23,0,0,1-5.287,2.3,7.277,7.277,0,1,1,0-14.553,7.259,7.259,0,0,1,5.287,2.149V8.493h2.119V22.236ZM17.505,15.364a5.589,5.589,0,0,0,5.266,5.192,5.609,5.609,0,0,0,5.287-5.192,5.609,5.609,0,0,0-5.287-5.191A5.589,5.589,0,0,0,17.505,15.364ZM44.541,5.577h2.119V8.812h2.7V10.9h-2.7v6.957a2.512,2.512,0,0,0,2.483,2.532v2.085c-2.8-.234-4.6-2.085-4.6-4.617V5.577Zm79.991,16.681V15.364a5.415,5.415,0,0,0-.685-2.573,5.354,5.354,0,0,0-9.2,0,5.662,5.662,0,0,0-.664,2.573v6.894H111.86V8.493h2.119V10a7.106,7.106,0,0,1,1.649-1.149,7.8,7.8,0,0,1,3.618-.766c3.274,0,7.405,1.4,7.405,7.276v6.894Zm16.353,0V20.364a7.215,7.215,0,0,1-5.287,2.277,7.307,7.307,0,0,1-7.385-7.191,7.458,7.458,0,0,1,12.672-5.085V4H143V22.258ZM130.332,15.45a5.279,5.279,0,0,0,10.553,0,5.279,5.279,0,0,0-10.553,0Zm22.518,6.808V8.6h2.119V22.258Zm0-15.467V4.282h2.119V6.791Zm6.4,8.573v6.894H157.11V8.493h2.141V10a7.631,7.631,0,0,1,1.627-1.149,8.02,8.02,0,0,1,3.361-.766v2.107a5.475,5.475,0,0,0-2.27.554A4.8,4.8,0,0,0,159.25,15.364Zm-10.671,5.221a1.38,1.38,0,0,1-2.759,0A1.38,1.38,0,0,1,148.579,20.585Zm-73.647-1.61c-.612,1.083-2.2,1.581-4.07,1.581-2.676,0-4.966-2.149-5.073-4.149H78.183a7.166,7.166,0,0,0-7.321-8.319,7.277,7.277,0,1,0,0,14.553c2.881,0,5.134-1.03,6.141-2.652Zm-4.07-8.8a5.714,5.714,0,0,1,5.18,4.149H65.725A5.614,5.614,0,0,1,70.863,10.173ZM86.81,20.556a5.192,5.192,0,1,1,0-10.384c2.1,0,3.793.788,4.513,2.231l1.936-.949C92.172,9.4,89.784,8.088,86.81,8.088a7.351,7.351,0,0,0-7.385,7.276h0a7.351,7.351,0,0,0,7.385,7.277c2.974,0,5.363-1.315,6.449-3.367l-1.936-.949C90.6,19.767,88.914,20.556,86.81,20.556ZM33.594,19.2,37.2,8.088a5.267,5.267,0,0,1,4.833,2.524l-.985.483-.711.354-.239.111A2.793,2.793,0,0,0,38.611,10.4,4.186,4.186,0,0,0,37.2,10.17v0h0a4.794,4.794,0,0,0-1.433.234,1.9,1.9,0,0,0-1.52,1.766,1.989,1.989,0,0,0,1.52,1.915,4.192,4.192,0,0,0,1.433.234c2.74,0,4.045,1.085,4.709,2.127a4.468,4.468,0,0,1,.685,2.107,4.291,4.291,0,0,1-.685,2.021c-.642,1.021-1.991,2.064-4.709,2.064v0a5.606,5.606,0,0,1-5.148-2.688h0l1.935-.949a2.931,2.931,0,0,0,1.608,1.313,5.314,5.314,0,0,0,1.605.234h0a5.033,5.033,0,0,0,1.563-.234c.749-.234,1.713-.7,1.713-1.766a2.116,2.116,0,0,0-1.713-1.894,4.907,4.907,0,0,0-1.563-.255c-2.59-.022-3.852-1.064-4.451-2.107a4.851,4.851,0,0,1-.621-2.127,4.577,4.577,0,0,1,.621-2.043c.6-1,1.841-2.043,4.451-2.043m19.023,0a5.268,5.268,0,0,1,4.835,2.524l-.986.483-.711.354-.239.111A2.8,2.8,0,0,0,57.635,10.4a4.191,4.191,0,0,0-1.413-.234v0h0a4.8,4.8,0,0,0-1.435.234,1.9,1.9,0,0,0-1.519,1.766,1.988,1.988,0,0,0,1.519,1.915,4.2,4.2,0,0,0,1.435.234c2.74,0,4.045,1.085,4.709,2.127a4.468,4.468,0,0,1,.685,2.107,4.291,4.291,0,0,1-.685,2.021c-.642,1.021-1.991,2.064-4.709,2.064v0a5.608,5.608,0,0,1-5.149-2.688h0l1.936-.949a2.931,2.931,0,0,0,1.608,1.313,5.314,5.314,0,0,0,1.605.234h0a5.033,5.033,0,0,0,1.563-.234c.748-.234,1.711-.7,1.711-1.766a2.116,2.116,0,0,0-1.711-1.894,4.907,4.907,0,0,0-1.563-.255c-2.59-.022-3.853-1.064-4.453-2.107a4.85,4.85,0,0,1-.62-2.127,4.576,4.576,0,0,1,.62-2.043c.6-1,1.841-2.043,4.453-2.043" transform="translate(-11.033 -4)" fill="#484f57"/>
      <path id="Persian" d="M24.256,261.2a.944.944,0,1,0,.962.944A.954.954,0,0,0,24.256,261.2Zm74.709.035a.944.944,0,1,0,.962.944A.954.954,0,0,0,98.965,261.238Zm2.638,0a.944.944,0,1,0,.961.944A.955.955,0,0,0,101.6,261.238Zm-19.3,3v4.321a1.249,1.249,0,0,1-1.259,1.236H79.859a.61.61,0,0,1-.615-.6v-4.479H77.895v3.846a1.25,1.25,0,0,1-1.261,1.236H75.446a.611.611,0,0,1-.615-.6v-4.954H73.482v4.321a1.25,1.25,0,0,1-1.261,1.236H60.289a.611.611,0,0,1-.615-.6V266.22h0a3.227,3.227,0,0,0-3.252-3.168h-.21l2.64-2.005L58.024,260,54,263.052v1.325H56.42a1.889,1.889,0,0,1,1.9,1.869v2.313a1.25,1.25,0,0,1-1.259,1.236H25.547a.61.61,0,0,1-.615-.6v-4.954H23.583v4.326a1.249,1.249,0,0,1-1.259,1.232H11.231a.61.61,0,0,1-.615-.6v-3.185a2.825,2.825,0,0,0-.879-2.084,2.946,2.946,0,0,0-2.132-.87,3.922,3.922,0,0,0-2.272.589c-.085.059-.255.175-.338.234l-.213.156.78,1.054s.282-.181.554-.366a2.676,2.676,0,0,1,1.49-.335,1.644,1.644,0,0,1,1.178.474,1.557,1.557,0,0,1,.483,1.148v2.531a1.309,1.309,0,0,1-.27.931,1.76,1.76,0,0,1-1.227.326H4v1.325H7.771a3.313,3.313,0,0,0,1.9-.488c.05-.035.094-.074.14-.111a1.974,1.974,0,0,0,1.42.6H22.322a2.62,2.62,0,0,0,1.745-.664,1.973,1.973,0,0,0,1.479.664H57.066a2.622,2.622,0,0,0,1.745-.664,1.97,1.97,0,0,0,1.478.664H72.221a2.623,2.623,0,0,0,1.746-.664,1.97,1.97,0,0,0,1.478.664h1.188a2.62,2.62,0,0,0,1.745-.664,1.975,1.975,0,0,0,1.479.664h1.188a2.588,2.588,0,0,0,2.609-2.561v-4.321Zm72.151-3.74v8.061a1.249,1.249,0,0,1-1.259,1.236H131.956a.61.61,0,0,1-.615-.6v-4.954h-1.35v4.321a1.249,1.249,0,0,1-1.259,1.236h-1.188a.61.61,0,0,1-.615-.6v-4.479H125.58v3.846a1.25,1.25,0,0,1-1.261,1.236h-1.188a.611.611,0,0,1-.615-.6v-4.954h-1.349v4.321a1.25,1.25,0,0,1-1.261,1.236h-8.554a.61.61,0,0,1-.615-.6v-4.954h-1.349v4.321a1.25,1.25,0,0,1-1.261,1.236H90.359v.006a2,2,0,0,1-1.44-.591,1.936,1.936,0,0,1-.6-1.427,2.362,2.362,0,0,1,.979-2.075l.535-.377-.76-1.071-.32.2-.236.161a3.6,3.6,0,0,0-1.556,3.161,3.181,3.181,0,0,0,1,2.357,3.328,3.328,0,0,0,2.4.98h17.768a2.623,2.623,0,0,0,1.746-.664,1.97,1.97,0,0,0,1.478.664h8.554a2.623,2.623,0,0,0,1.747-.664,1.97,1.97,0,0,0,1.478.664h1.188a2.62,2.62,0,0,0,1.745-.664,1.975,1.975,0,0,0,1.479.664h1.188a2.62,2.62,0,0,0,1.745-.664,1.973,1.973,0,0,0,1.479.664H153.2a2.588,2.588,0,0,0,2.609-2.561V260.5Z" transform="translate(-4 -230.118)" fill="#484f57"/>
      <path id="clock" d="M711.49,40.619l-2.209,1.036a5.268,5.268,0,0,1-5.2,4.227,5.192,5.192,0,1,1,0-10.384,5.317,5.317,0,0,1,4.084,1.9l1.9-.933a7.632,7.632,0,0,0-1.389-1.431.213.213,0,0,0,.023-.035l.458-.908a.254.254,0,0,0-.114-.342l-1.826-.911a.257.257,0,0,0-.343.114l-.434.861a7.311,7.311,0,0,0-2.364-.4,7.41,7.41,0,0,0-2.367.388l-.43-.851a.256.256,0,0,0-.342-.112l-1.827.911a.255.255,0,0,0-.114.341l.459.908a.16.16,0,0,0,.012.019,7.231,7.231,0,0,0-2.776,5.672,7.4,7.4,0,0,0,14.791,0C711.492,40.666,711.49,40.643,711.49,40.619Z" transform="translate(-612.977 -29.325)" fill="#484f57"/>
      <path id="plane" d="M748.25,79.334a1.38,1.38,0,0,0-1.159-.307,10.749,10.749,0,0,0-2.275,1.052c-.929.5-1.844,1.065-2.044,1.2l-1.021-.789a.785.785,0,0,0-.719-.085l-.262.137a.112.112,0,0,0-.041.175l.039.045,1.777,1.771h0a.514.514,0,0,0,.5.094h0l3.52-1.617c.292-.124,1-.485,1.281-.633C748.267,80.161,748.81,79.749,748.25,79.334Z" transform="translate(-651.661 -69.934)" fill="#eb5643"/>
      <path id="windows" d="M769.607,88.276a.248.248,0,1,0-.25.244A.247.247,0,0,0,769.607,88.276Zm.908-.45a.248.248,0,1,0-.25.245A.249.249,0,0,0,770.514,87.826Zm.908-.448a.248.248,0,1,0-.25.244A.247.247,0,0,0,771.422,87.378Z" transform="translate(-676.635 -77.082)" fill="#484f57"/>
      <path id="Exclusion_1" data-name="Exclusion 1" d="M19.793,41.058A19.872,19.872,0,0,1,1.56,29a19.519,19.519,0,0,1,.462-16.3A20.056,20.056,0,0,1,7.441,5.985l-.01-.015a.317.317,0,0,1-.022-.037L6.177,3.474a.693.693,0,0,1,.3-.923L11.38.083A.672.672,0,0,1,11.685.01.68.68,0,0,1,12.3.387l1.153,2.3a19.658,19.658,0,0,1,6.343-1.051,19.413,19.413,0,0,1,6.336,1.07L27.292.381A.686.686,0,0,1,27.907,0a.671.671,0,0,1,.3.073l4.9,2.468a.691.691,0,0,1,.3.927L32.183,5.926a.586.586,0,0,1-.061.1A20.574,20.574,0,0,1,35.844,9.9l-5.106,2.527a14.039,14.039,0,1,0,2.981,11.539l5.921-2.805c0,.033,0,.066,0,.1s0,.062,0,.092A19.317,19.317,0,0,1,38.075,29,19.913,19.913,0,0,1,19.793,41.058ZM20.1,25.035a1.341,1.341,0,0,1-.9-.331H19.19l-4.762-4.8-.1-.121a.321.321,0,0,1-.064-.261.328.328,0,0,1,.174-.213l.7-.37a1.643,1.643,0,0,1,.7-.143,2.211,2.211,0,0,1,1.229.372L19.8,21.308c.486-.342,2.907-1.862,5.478-3.26.2-.111.443-.244.695-.385a23.957,23.957,0,0,1,5.4-2.463,3.544,3.544,0,0,1,.733-.079,3.931,3.931,0,0,1,2.373.911,1.274,1.274,0,0,1,.639,1.081c-.058.763-1.1,1.426-1.711,1.754-.787.422-2.66,1.383-3.433,1.715l-9.434,4.38-.01,0A1.23,1.23,0,0,1,20.1,25.035Zm4.021-4.819a.666.666,0,0,0,0,1.332h.006a.666.666,0,0,0,0-1.332ZM26.554,19a.668.668,0,0,0,0,1.336h.005a.668.668,0,0,0,0-1.336h-.006Zm2.434-1.216h0a.666.666,0,0,0,0,1.333h.005a.666.666,0,0,0,0-1.333h-.005Z" transform="translate(161.802 -0.056)" fill="#e94a35"/>
    </g>
  </g>
</svg>
